# xmcd CD database file
#
# Track frame offsets:
#	150
#	11235
#	19040
#	30105
#	39180
#	49695
#	58390
#	66860
#	81722
#	92502
#
# Disc length: 1340 seconds
#
# Revision: 2
# Processed by: cddbd v1.4PL0 Copyright (c) Steve Scherf et al.
# Submitted via: CdAid (MTCDDB.DLL V2003.01.23)
#
DISCID=79053a0a
DTITLE=Roger Miller - King of the Road
DYEAR=1982
DGENRE=Country
TTITLE0=King Of The Road
TTITLE1=Dang Me
TTITLE2=Husbands And Wives
TTITLE3=Chug-A-Lug
TTITLE4=Release Me
TTITLE5=England Swing
TTITLE6=You Can't Rollerscate In A Buffalo Herd
TTITLE7=Me And Bobby McGee
TTITLE8=Don't We All Have The Right (To Be Wrong Now And Then)
TTITLE9=In The Summertime
EXTD=YEAR: 1982 ID3G:   2  1982 on Epic CD
EXTT0=
EXTT1=
EXTT2=
EXTT3=
EXTT4=
EXTT5=
EXTT6=
EXTT7=
EXTT8=
EXTT9=
PLAYORDER=
